<svg xmlns="http://www.w3.org/2000/svg" xml:space="preserve" height="40" viewBox="2200 7700 11100 5900" style="shape-rendering:geometricPrecision;fill-rule:evenodd;clip-rule:evenodd" aria-label="NOVU" role="img">
 <defs><style>.fil1{fill:#2E7FD4}.fil0{fill:#2E7FD4;fill-rule:nonzero}</style></defs>
 <g>
  <metadata id="CorelCorpID_0Corel-Layer"/>
  <polygon class="fil0" points="7097.92,10210.66 6695.85,10210.66 6695.85,7877.99 7101.11,7877.99 8313.72,9712.85 8195.65,9712.85 8195.65,7877.99 8597.72,7877.99 8597.72,10210.66 8195.65,10210.66 6979.85,8378.99 7097.92,8378.99 "/>
  <path id="_1" class="fil0" d="M11239.93 9042.73c0,236.14 -47.87,445.15 -143.6,627.04 -95.73,181.89 -228.69,323.9 -398.88,426.01 -170.19,102.12 -366.98,153.17 -590.35,153.17 -221.25,0 -416.97,-51.05 -587.16,-153.17 -170.19,-102.11 -302.62,-243.58 -397.29,-424.41 -94.66,-180.83 -142,-389.31 -142,-625.45 0,-238.27 47.87,-448.35 143.6,-630.24 95.73,-181.89 228.16,-323.89 397.29,-426 169.12,-102.12 365.38,-153.18 588.75,-153.18 223.38,0 419.63,51.06 588.75,153.18 169.13,102.11 301.56,243.58 397.29,424.41 95.73,180.82 143.6,390.37 143.6,628.64zm-427.6 0c0,-165.94 -28.72,-309.54 -86.16,-430.8 -57.44,-121.26 -138.28,-215.39 -242.52,-282.41 -104.25,-67.01 -228.7,-100.51 -373.36,-100.51 -142.53,0 -266.45,33.5 -371.76,100.51 -105.3,67.02 -186.68,161.15 -244.12,282.41 -57.44,121.26 -86.15,264.86 -86.15,430.8 0,165.93 28.71,310.06 86.15,432.39 57.44,122.32 138.82,216.46 244.12,282.41 105.31,65.95 229.23,98.92 371.76,98.92 144.66,0 269.11,-33.5 373.36,-100.52 104.24,-67.01 185.08,-161.68 242.52,-284 57.44,-122.33 86.16,-265.39 86.16,-429.2z"/>
  <path id="_2" class="fil0" d="M12165.34 10210.66l-880.74 -2332.67 433.99 0 510.57 1343.44c25.53,68.07 49.99,139.34 73.39,213.8 23.4,74.46 47.87,158.49 73.4,252.09 27.65,-102.11 54.24,-190.4 79.77,-264.85 25.53,-74.46 48.93,-141.48 70.21,-201.04l504.19 -1343.44 424.41 0 -867.97 2332.67 -421.22 0z"/>
  <path id="_3" class="fil0" d="M13728.96 9358.64l0 -1480.65 408.46 0 0 1455.13c0,168.06 44.67,296.77 134.02,386.12 89.35,89.35 215.93,134.02 379.74,134.02 165.94,0 293.58,-45.21 382.93,-135.62 89.35,-90.41 134.02,-218.59 134.02,-384.52l0 -1455.13 408.46 0 0 1480.65c0,180.83 -37.76,337.73 -113.28,470.69 -75.52,132.96 -182.43,236.14 -320.7,309.53 -138.28,73.4 -302.09,110.09 -491.43,110.09 -187.21,0 -349.95,-36.16 -488.23,-108.49 -138.28,-72.33 -245.18,-175.51 -320.71,-309.54 -75.52,-134.02 -113.28,-291.45 -113.28,-472.28z"/>
  <g transform="matrix(1.00066 0 0 1 -2470.57 2027.4)">
   <polygon class="fil0" points="6712.9,11355.08 6856.6,11126.31 6834.04,11126.31 6734.62,10750.6 6794.77,10750.6 6880.83,11086.24 6880.83,11086.24 7092.21,10750.6 7153.2,10750.6 6773.89,11355.08 "/>
   <path id="_1_0" class="fil0" d="M7331.99 11181.42c-35.1,0 -66.15,-8.07 -93.16,-24.21 -27.01,-16.15 -47.48,-38.83 -61.4,-68.05 -13.93,-29.22 -19.78,-62.48 -17.56,-99.77 0.56,-36.19 7.67,-69.44 21.31,-99.78 13.65,-30.33 31.47,-56.63 53.47,-78.9 22,-22.26 47.63,-39.52 76.86,-51.77 29.24,-12.24 60.02,-18.36 92.33,-18.36 36.2,0 67.53,7.93 93.99,23.79 26.46,15.87 46.93,37.99 61.41,66.38 14.48,28.39 20.32,61.78 17.54,100.19 -1.67,36.18 -9.05,69.44 -22.13,99.77 -13.09,30.34 -30.79,56.78 -53.06,79.32 -22.28,22.55 -47.62,40.08 -76.03,52.6 -28.41,12.53 -59.6,18.79 -93.57,18.79zm7.51 -50.93c32.31,0.56 61.41,-7.52 87.31,-24.21 25.9,-16.7 46.93,-39.8 63.08,-69.3 16.15,-29.5 25.07,-63.74 26.74,-102.7 1.67,-30.61 -2.79,-56.64 -13.37,-78.07 -10.59,-21.43 -25.35,-37.43 -44.28,-48 -18.94,-10.58 -40.1,-15.87 -63.5,-15.87 -30.63,-0.55 -58.76,7.52 -84.39,24.21 -25.61,16.7 -46.64,39.94 -63.07,69.72 -16.43,29.78 -25.76,63.6 -27.99,101.45 -1.12,30.61 3.49,56.63 13.78,78.06 10.31,21.43 24.79,37.57 43.45,48.43 18.66,10.85 39.41,16.28 62.24,16.28z"/>
   <path id="_2_1" class="fil0" d="M7786.49 11181.42c-33.97,0 -61.55,-7.52 -82.72,-22.54 -21.16,-15.03 -35.64,-35.77 -43.43,-62.21 -7.81,-26.44 -8.36,-56.91 -1.68,-91.42l45.11 -254.65 58.49 0 -43.45 247.97c-7.79,42.86 -4.87,75.56 8.78,98.1 13.65,22.55 39.41,33.82 77.28,33.82 24.51,0 47.62,-5.57 69.35,-16.7 21.72,-11.13 40.51,-27.69 56.39,-49.68 15.87,-21.98 27.15,-49.12 33.84,-81.4l40.1 -232.11 58.48 0 -73.52 420.8 -52.63 0 9.18 -75.98 0 0c-17.82,27.28 -40.79,48.43 -68.92,63.46 -28.13,15.02 -58.35,22.54 -90.65,22.54z"/>
   <path id="_3_2" class="fil0" d="M8352.1 11171.4l74.36 -420.8 52.64 0 -9.19 75.97 0 0c17.26,-27.27 39.97,-48.42 68.1,-63.45 28.11,-15.03 58.05,-22.54 89.8,-22.54 35.1,0 63.09,7.51 83.97,22.54 20.88,15.03 35.23,35.76 43.03,62.2 7.79,26.44 8.63,56.92 2.5,91.43l-45.11 254.65 -58.49 0 43.45 -247.97c7.8,-42.31 4.45,-74.87 -10.03,-97.69 -14.48,-22.82 -40.65,-34.23 -78.53,-34.23 -24.5,0 -47.49,5.7 -68.93,17.11 -21.44,11.41 -39.82,28.11 -55.14,50.1 -15.32,21.99 -26.32,48.84 -33,80.57l-40.94 232.11 -58.49 0z"/>
   <path id="_4" class="fil0" d="M9002.94 11181.42c-35.08,0 -65.16,-7.79 -90.23,-23.38 -25.06,-15.58 -44,-37.57 -56.8,-65.96 -12.82,-28.39 -18.11,-61.5 -15.89,-99.36 1.12,-36.18 8.08,-69.57 20.89,-100.19 12.82,-30.61 29.94,-57.33 51.38,-80.15 21.45,-22.82 46.37,-40.49 74.78,-53.02 28.41,-12.52 59.32,-18.78 92.74,-18.78 38.43,0 69.62,7.79 93.58,23.37 23.94,15.59 41.63,36.05 53.05,61.37 11.42,25.33 16.01,53.58 13.78,84.75 0,8.9 -0.97,19.34 -2.92,31.31 -1.95,11.96 -4.04,22.96 -6.27,32.98l-345.89 0 8.36 -49.26 289.91 0c3.89,-29.51 1.67,-54.14 -6.68,-73.9 -8.36,-19.76 -21.59,-34.78 -39.69,-45.08 -18.1,-10.3 -39.97,-15.45 -65.58,-15.45 -25.07,0 -49.29,5.71 -72.69,17.12 -23.4,11.41 -43.59,28.11 -60.57,50.09 -16.99,21.99 -28.55,49.68 -34.67,83.08l-4.19 21.71c-5.56,33.95 -4.73,63.59 2.52,88.92 7.23,25.32 20.32,44.94 39.26,58.86 18.93,13.92 42.61,20.87 71.02,20.87 31.74,0 59.18,-7.09 82.29,-21.29 23.12,-14.19 41.36,-33.81 54.73,-58.86l56.81 0c-11.14,24.49 -26.46,46.76 -45.95,66.79 -19.5,20.04 -42.47,35.63 -68.93,46.76 -26.46,11.13 -55.84,16.7 -88.15,16.7z"/>
   <polygon id="_5" class="fil0" points="9367.22,11171.4 9317.92,10750.6 9376.41,10750.6 9413.17,11110.45 9401.48,11110.45 9574.42,10750.6 9641.25,10750.6 9685.53,11110.45 9674.68,11110.45 9838.43,10750.6 9897.75,10750.6 9700.57,11171.4 9640.42,11171.4 9594.47,10794.85 9605.33,10794.85 9426.54,11171.4 "/>
   <polygon id="_6" class="fil0" points="10148.39,11171.4 10255.33,10570.25 10313.82,10570.25 10206.88,11171.4 "/>
   <path id="_7" class="fil0" d="M10333.87 11171.4l74.36 -420.8 59.32 0 -75.2 420.8 -58.48 0zm128.67 -520.16c-11.7,-0.56 -21.59,-4.73 -29.66,-12.53 -8.08,-7.79 -11.84,-18.09 -11.28,-30.89 -0.56,-12.24 3.33,-22.26 11.69,-30.06 8.35,-7.79 18.38,-11.68 30.08,-11.68 11.13,0.55 21.02,4.59 29.66,12.1 8.63,7.52 12.67,17.67 12.12,30.48 0,12.24 -4.19,22.26 -12.54,30.05 -8.36,7.8 -18.38,11.97 -30.07,12.53z"/>
   <path id="_8" class="fil0" d="M10545.24 11171.4l86.89 -493.44c4.46,-24.49 11.98,-44.67 22.56,-60.54 10.58,-15.86 24.93,-27.69 43.03,-35.48 18.1,-7.79 39.41,-11.69 63.91,-11.69l45.96 0 -9.2 50.1 -36.76 0c-21.16,0 -37.45,4.45 -48.88,13.36 -11.42,8.9 -19.07,24.49 -22.97,46.75l-86.89 490.94 -57.65 0zm0 -370.71l8.36 -50.09 233.93 0 -9.18 49.26 -233.11 0.83z"/>
   <path id="_9" class="fil0" d="M10978.02 11181.42c-35.09,0 -65.17,-7.79 -90.23,-23.38 -25.07,-15.58 -44,-37.57 -56.81,-65.96 -12.82,-28.39 -18.1,-61.5 -15.88,-99.36 1.11,-36.18 8.08,-69.57 20.88,-100.19 12.82,-30.61 29.94,-57.33 51.39,-80.15 21.44,-22.82 46.37,-40.49 74.78,-53.02 28.41,-12.52 59.32,-18.78 92.74,-18.78 38.42,0 69.61,7.79 93.57,23.37 23.95,15.59 41.64,36.05 53.06,61.37 11.41,25.33 16.01,53.58 13.77,84.75 0,8.9 -0.97,19.34 -2.92,31.31 -1.95,11.96 -4.03,22.96 -6.26,32.98l-345.89 0 8.36 -49.26 289.91 0c3.89,-29.51 1.67,-54.14 -6.69,-73.9 -8.35,-19.76 -21.58,-34.78 -39.68,-45.08 -18.11,-10.3 -39.97,-15.45 -65.59,-15.45 -25.06,0 -49.29,5.71 -72.68,17.12 -23.4,11.41 -43.59,28.11 -60.58,50.09 -16.99,21.99 -28.54,49.68 -34.67,83.08l-4.18 21.71c-5.56,33.95 -4.73,63.59 2.51,88.92 7.24,25.32 20.32,44.94 39.27,58.86 18.93,13.92 42.61,20.87 71.01,20.87 31.74,0 59.18,-7.09 82.3,-21.29 23.11,-14.19 41.36,-33.81 54.72,-58.86l56.81 0c-11.14,24.49 -26.46,46.76 -45.95,66.79 -19.49,20.04 -42.47,35.63 -68.92,46.76 -26.46,11.13 -55.84,16.7 -88.15,16.7z"/>
   <path id="_10" class="fil0" d="M11518.58 11171.4l74.35 -420.8 59.32 0 -75.2 420.8 -58.47 0zm128.66 -520.16c-11.7,-0.56 -21.58,-4.73 -29.66,-12.53 -8.07,-7.79 -11.84,-18.09 -11.28,-30.89 -0.56,-12.24 3.34,-22.26 11.69,-30.06 8.36,-7.79 18.38,-11.68 30.08,-11.68 11.14,0.55 21.02,4.59 29.66,12.1 8.64,7.52 12.67,17.67 12.12,30.48 0,12.24 -4.18,22.26 -12.54,30.05 -8.36,7.8 -18.37,11.97 -30.07,12.53z"/>
   <path id="_11" class="fil0" d="M11704.88 11171.4l74.36 -420.8 52.63 0 -9.18 75.97 0 0c17.26,-27.27 39.96,-48.42 68.09,-63.45 28.12,-15.03 58.06,-22.54 89.81,-22.54 35.09,0 63.08,7.51 83.97,22.54 20.88,15.03 35.23,35.76 43.02,62.2 7.8,26.44 8.64,56.92 2.51,91.43l-45.11 254.65 -58.49 0 43.45 -247.97c7.79,-42.31 4.45,-74.87 -10.03,-97.69 -14.48,-22.82 -40.66,-34.23 -78.53,-34.23 -24.51,0 -47.49,5.7 -68.94,17.11 -21.43,11.41 -39.81,28.11 -55.13,50.1 -15.32,21.99 -26.32,48.84 -33.01,80.57l-40.93 232.11 -58.49 0z"/>
   <path id="_12" class="fil0" d="M12425.06 11171.4l103.6 -584.45 182.97 0c41.22,0 74.77,6.82 100.68,20.45 25.9,13.64 44.56,31.87 55.98,54.69 11.41,22.82 16.29,48.15 14.62,75.98 -1.67,38.41 -11.98,71.53 -30.91,99.36 -18.95,27.83 -45.4,49.4 -79.38,64.71 -33.98,15.3 -74.08,22.96 -120.31,22.96l-124.49 0 -44.28 246.3 -58.48 0zm111.12 -296.4l124.49 0c51.24,0 90.51,-11.13 117.8,-33.4 27.3,-22.26 41.78,-55.66 43.45,-100.19 2.23,-31.17 -5.99,-56.5 -24.65,-75.98 -18.66,-19.48 -49.99,-29.22 -93.99,-29.22l-125.32 0 -41.78 238.79z"/>
   <path id="_13" class="fil0" d="M13072.56 11181.42c-35.09,0 -66.14,-8.07 -93.16,-24.21 -27.01,-16.15 -47.48,-38.83 -61.4,-68.05 -13.93,-29.22 -19.77,-62.48 -17.55,-99.77 0.56,-36.19 7.66,-69.44 21.3,-99.78 13.65,-30.33 31.47,-56.63 53.48,-78.9 21.99,-22.26 47.62,-39.52 76.86,-51.77 29.24,-12.24 60.02,-18.36 92.32,-18.36 36.2,0 67.53,7.93 93.99,23.79 26.46,15.87 46.93,37.99 61.41,66.38 14.48,28.39 20.33,61.78 17.54,100.19 -1.67,36.18 -9.04,69.44 -22.13,99.77 -13.09,30.34 -30.78,56.78 -53.06,79.32 -22.28,22.55 -47.62,40.08 -76.03,52.6 -28.4,12.53 -59.6,18.79 -93.57,18.79zm7.52 -50.93c32.31,0.56 61.41,-7.52 87.3,-24.21 25.9,-16.7 46.94,-39.8 63.09,-69.3 16.15,-29.5 25.06,-63.74 26.73,-102.7 1.68,-30.61 -2.79,-56.64 -13.36,-78.07 -10.59,-21.43 -25.35,-37.43 -44.28,-48 -18.95,-10.58 -40.11,-15.87 -63.51,-15.87 -30.63,-0.55 -58.75,7.52 -84.38,24.21 -25.62,16.7 -46.64,39.94 -63.07,69.72 -16.43,29.78 -25.77,63.6 -27.99,101.45 -1.12,30.61 3.48,56.63 13.78,78.06 10.3,21.43 24.78,37.57 43.45,48.43 18.66,10.85 39.4,16.28 62.24,16.28z"/>
   <path id="_14" class="fil0" d="M13378.34 11171.4l74.36 -420.8 53.48 0 -9.2 75.97 0 0c12.82,-18.36 27.99,-33.95 45.54,-46.75 17.54,-12.8 37.32,-22.55 59.32,-29.22 22,-6.68 46.09,-10.02 72.27,-10.02l-10.03 60.95 -22.55 0c-18.38,0 -36.35,2.22 -53.9,6.68 -17.54,4.45 -33.69,11.82 -48.45,22.12 -14.76,10.3 -27.44,24.07 -38.01,41.33 -10.59,17.26 -18.11,38.69 -22.57,64.29l-41.77 235.45 -58.49 0z"/>
   <path id="_15" class="fil0" d="M13838.69 11171.4c-27.29,0 -49.15,-4.31 -65.58,-12.94 -16.44,-8.63 -27.29,-21.99 -32.59,-40.08 -5.29,-18.09 -5.43,-41.33 -0.42,-69.71l43.45 -247.98 -66.83 0 9.18 -50.09 66.84 0 25.06 -97.69 50.97 0 -17.54 97.69 126.15 0 -8.36 50.09 -126.15 0 -44.28 247.98c-5.01,27.83 -2.92,46.89 6.27,57.19 9.18,10.3 27.15,15.44 53.88,15.44l52.64 0 -9.19 50.1 -63.5 0z"/>
   <path id="_16" class="fil0" d="M14143.64 11181.42c-33.97,0 -61.55,-7.52 -82.71,-22.54 -21.17,-15.03 -35.65,-35.77 -43.44,-62.21 -7.81,-26.44 -8.36,-56.91 -1.67,-91.42l45.11 -254.65 58.48 0 -43.44 247.97c-7.8,42.86 -4.88,75.56 8.77,98.1 13.65,22.55 39.41,33.82 77.28,33.82 24.51,0 47.62,-5.57 69.35,-16.7 21.72,-11.13 40.51,-27.69 56.4,-49.68 15.87,-21.98 27.14,-49.12 33.83,-81.4l40.1 -232.11 58.48 0 -73.52 420.8 -52.63 0 9.19 -75.98 0 0c-17.83,27.28 -40.8,48.43 -68.93,63.46 -28.13,15.02 -58.35,22.54 -90.65,22.54z"/>
   <path id="_17" class="fil0" d="M14588.11 11365.1c-34.53,0 -64.74,-4.87 -90.65,-14.61 -25.89,-9.74 -45.81,-23.65 -59.73,-41.74 -13.92,-18.09 -20.33,-40.22 -19.22,-66.38 1.12,-17.81 5.16,-34.65 12.12,-50.51 6.96,-15.87 17.82,-30.9 32.58,-45.09 14.76,-14.19 33,-27.41 54.73,-39.66l43.45 20.87c-26.74,13.92 -46.79,29.64 -60.16,47.18 -13.37,17.53 -20.61,36.59 -21.73,57.19 -0.55,17.26 3.76,32.14 12.95,44.67 9.2,12.52 22.57,22.12 40.11,28.8 17.54,6.68 38.84,10.02 63.91,10.02 41.78,0 75.61,-9.18 101.52,-27.55 25.89,-18.37 39.4,-42.86 40.51,-73.47 1.11,-18.37 -5.01,-34.37 -18.38,-48.01 -13.37,-13.64 -40.38,-21.57 -81.04,-23.8 -26.73,-2.22 -49.99,-5.15 -69.76,-8.76 -19.77,-3.62 -36.76,-7.94 -50.96,-12.95 -14.21,-5.01 -26.46,-10.85 -36.77,-17.53 -10.3,-6.68 -19.35,-13.91 -27.15,-21.71l3.34 -19.2 87.73 -68.47 47.62 19.21 -88.56 66.79 9.18 -27.55c7.81,5.01 15.32,9.6 22.57,13.78 7.23,4.17 15.59,7.93 25.07,11.27 9.46,3.34 21.02,6.12 34.66,8.35 13.65,2.22 31.06,4.17 52.22,5.84 40.66,2.78 72.13,9.88 94.41,21.29 22.28,11.41 37.6,25.61 45.96,42.58 8.35,16.98 11.96,35.21 10.85,54.69 -1.11,28.39 -10.44,54.27 -27.98,77.65 -17.55,23.38 -41.92,42.02 -73.11,55.94 -31.19,13.92 -67.95,20.87 -110.29,20.87zm56.82 -327.29c-32.31,0 -59.04,-5.56 -80.21,-16.7 -21.17,-11.13 -36.76,-26.44 -46.78,-45.92 -10.03,-19.48 -14.21,-41.19 -12.54,-65.12 1.12,-32.29 10.17,-61.09 27.16,-86.42 16.99,-25.32 39.68,-45.5 68.09,-60.53 28.4,-15.03 60.71,-22.54 96.92,-22.54 32.3,0 58.9,5.56 79.78,16.69 20.89,11.14 36.34,26.31 46.37,45.51 10.03,19.2 14.21,41.33 12.54,66.38 -1.12,31.17 -10.03,59.55 -26.74,85.16 -16.71,25.6 -39.27,45.92 -67.67,60.95 -28.41,15.03 -60.71,22.54 -96.92,22.54zm9.19 -50.09c35.65,0 64.75,-10.44 87.31,-31.31 22.56,-20.88 34.67,-48.57 36.34,-83.08 1.67,-27.27 -5.43,-47.87 -21.3,-61.78 -15.88,-13.92 -38.57,-20.88 -68.1,-20.88 -35.64,0 -64.88,10.3 -87.72,30.89 -22.83,20.6 -35.09,48.71 -36.76,84.33 -1.67,26.72 5.43,47.04 21.3,60.95 15.87,13.92 38.85,20.88 68.93,20.88zm101.09 -185.36l-11.69 -51.76 170.44 0 -9.2 46.75 -149.55 5.01z"/>
   <path id="_18" class="fil0" d="M15055.99 11181.42c-30.64,0 -55.69,-5.57 -75.2,-16.7 -19.49,-11.13 -33.69,-25.6 -42.6,-43.42 -8.91,-17.81 -12.81,-36.73 -11.7,-56.77 1.12,-31.17 10.44,-57.75 27.99,-79.74 17.55,-21.98 41.35,-38.68 71.43,-50.09 30.08,-11.41 64.62,-17.12 103.6,-17.12l113.63 0c5.01,-28.39 4.87,-51.9 -0.42,-70.55 -5.29,-18.65 -15.03,-32.7 -29.24,-42.16 -14.2,-9.47 -33.28,-14.2 -57.23,-14.2 -28.97,0 -55.01,7.24 -78.12,21.71 -23.12,14.47 -39.69,35.62 -49.72,63.45l-60.99 0c8.92,-29.5 23.26,-54.27 43.03,-74.3 19.78,-20.04 43.03,-35.21 69.77,-45.51 26.74,-10.3 54.3,-15.44 82.71,-15.44 37.32,0 67.4,7.09 90.23,21.29 22.84,14.19 38.3,34.09 46.37,59.69 8.08,25.61 9.05,55.67 2.93,90.18l-45.11 259.66 -53.48 0 10.03 -76.81 0 0c-7.8,11.69 -16.71,22.82 -26.74,33.39 -10.03,10.58 -21.44,19.76 -34.25,27.56 -12.81,7.79 -27.3,14.05 -43.45,18.78 -16.15,4.73 -33.97,7.1 -53.47,7.1zm13.37 -50.93c21.17,0 40.66,-4.32 58.48,-12.94 17.82,-8.63 33.97,-19.9 48.46,-33.82 14.48,-13.91 26.32,-29.64 35.51,-47.17 9.19,-17.53 15.74,-35.76 19.63,-54.69l3.34 -15.03 -109.44 0c-28.97,0 -53.48,3.76 -73.53,11.27 -20.05,7.52 -35.5,18.09 -46.37,31.73 -10.86,13.64 -16.57,29.92 -17.12,48.84 -1.12,21.71 5.01,39.11 18.38,52.19 13.37,13.08 34.25,19.62 62.66,19.62z"/>
   <polygon id="_19" class="fil0" points="15375.97,11171.4 15482.92,10570.25 15541.4,10570.25 15434.46,11171.4 "/>
  </g>
  <path class="fil1" d="M3656.43 9707.43c24.46,758.5 1222.39,1605.22 2100.29,1424.27 54.34,-556.16 97.89,-2935.3 -13.85,-3233.77 -218.78,-31.85 -453.24,-17.37 -676.17,-17.11 -256.17,0.28 -381.58,9.33 -430.45,248.46 -119.7,585.94 297.76,435.25 452.2,975.46 112.83,394.68 71.04,985.82 -436.12,849.83 -244.64,-65.62 -566.11,-325.15 -837.74,-397.19 -162.51,-43.1 -163.47,-16.01 -158.16,150.05z"/>
  <path class="fil1" d="M2461.95 10697.56c1.04,426.84 -92.93,457.95 331.13,455.85 2167.05,66.27 -140.74,-644.27 454.48,-1958.22 35.05,-77.38 68.54,-88.53 166.2,-95 315.89,-20.93 726.02,326.9 1173.65,401.37 33.9,5.62 38.69,-7.55 35.32,-43.71 -69.31,-740.29 -964.77,-1533.31 -1726.04,-1574.31 -334.07,-17.98 -437.65,-39.62 -444.8,176.82 -26.48,802.46 8.27,1847.91 10.06,2637.2z"/>
 </g>
</svg>
